<svg id="Icons" height="512" viewBox="0 0 60 60" width="512" xmlns="http://www.w3.org/2000/svg"><path d="m30.9 1.567 5.631 11.365a.011.011 0 0 0 .009.007l12.592 1.823a1 1 0 0 1 .558 1.713l-9.115 8.851 2.152 12.5a1.007 1.007 0 0 1 -1.463 1.058l-11.074-5.8a.416.416 0 0 0 -.388 0l-11.074 5.8a1.007 1.007 0 0 1 -1.463-1.058l2.152-12.5-9.115-8.851a1 1 0 0 1 .558-1.713l12.592-1.822a.021.021 0 0 0 .015-.011l5.633-11.362a1 1 0 0 1 1.8 0z" fill="#f7cb14"/><g fill="#e8b615"><path d="m9.362 44.224 2.252 4.486 5.036.719a.4.4 0 0 1 .224.676l-3.643 3.495.861 4.934a.4.4 0 0 1 -.585.418l-4.429-2.287a.166.166 0 0 0 -.156 0l-4.429 2.289a.4.4 0 0 1 -.585-.418l.861-4.936-3.647-3.492a.4.4 0 0 1 .224-.676l5.035-.719h.006l2.251-4.485a.4.4 0 0 1 .724-.004z"/><path d="m30.362 44.224 2.252 4.486 5.036.719a.4.4 0 0 1 .224.676l-3.643 3.495.861 4.934a.4.4 0 0 1 -.585.418l-4.429-2.289a.166.166 0 0 0 -.156 0l-4.429 2.289a.4.4 0 0 1 -.585-.418l.861-4.934-3.647-3.494a.4.4 0 0 1 .224-.676l5.035-.719h.006l2.251-4.485a.4.4 0 0 1 .724-.002z"/><path d="m51.362 44.224 2.252 4.486 5.036.719a.4.4 0 0 1 .224.676l-3.643 3.495.861 4.934a.4.4 0 0 1 -.585.418l-4.429-2.289a.166.166 0 0 0 -.156 0l-4.429 2.289a.4.4 0 0 1 -.585-.418l.861-4.934-3.647-3.494a.4.4 0 0 1 .224-.676l5.035-.719h.006l2.251-4.485a.4.4 0 0 1 .724-.002z"/></g></svg>