<?xml version="1.0" encoding="iso-8859-1"?>
<!-- Generator: Adobe Illustrator 19.0.0, SVG Export Plug-In . SVG Version: 6.00 Build 0)  -->
<svg version="1.1" id="Capa_1" xmlns="http://www.w3.org/2000/svg" xmlns:xlink="http://www.w3.org/1999/xlink" x="0px" y="0px"
	 viewBox="0 0 512 512" style="enable-background:new 0 0 512 512;" xml:space="preserve">
<path style="fill:#FF9F22;" d="M324.567,350.008l-40.873-5.939l-18.278-37.037c-1.77-3.584-5.419-5.853-9.416-5.853
	s-7.646,2.269-9.416,5.853l-18.278,37.037l-40.873,5.939c-3.955,0.575-7.241,3.345-8.477,7.146
	c-1.234,3.801-0.205,7.974,2.657,10.764l29.576,28.83l-6.981,40.708c-0.676,3.939,0.943,7.92,4.177,10.27
	c3.232,2.349,7.52,2.658,11.058,0.799L256,429.303l36.559,19.22c1.536,0.808,3.214,1.206,4.885,1.206
	c2.177,0,4.344-0.676,6.173-2.005c3.233-2.349,4.853-6.331,4.177-10.27l-6.982-40.708l29.576-28.829
	c2.862-2.79,3.892-6.962,2.657-10.764C331.809,353.353,328.522,350.583,324.567,350.008z"/>
<path style="fill:#FFC477;" d="M256,301.178c-3.997,0-7.646,2.269-9.416,5.853l-18.278,37.037l-40.873,5.939
	c-3.955,0.575-7.241,3.345-8.477,7.146c-1.234,3.801-0.205,7.974,2.657,10.764l29.576,28.83l-6.981,40.708
	c-0.676,3.939,0.943,7.92,4.177,10.27c3.232,2.349,7.52,2.658,11.058,0.799L256,429.303V301.178z"/>
<path style="fill:#FF9F22;" d="M154.759,350.008l-40.873-5.939l-18.278-37.037c-1.77-3.584-5.419-5.853-9.416-5.853
	s-7.646,2.269-9.416,5.853l-18.278,37.037l-40.873,5.939c-3.955,0.575-7.241,3.345-8.477,7.146
	c-1.234,3.801-0.205,7.974,2.657,10.764l29.576,28.83L34.4,437.456c-0.676,3.939,0.943,7.92,4.177,10.27
	c3.232,2.349,7.52,2.658,11.058,0.799l36.558-19.22l36.559,19.22c1.536,0.808,3.214,1.206,4.885,1.206
	c2.177,0,4.344-0.676,6.173-2.005c3.233-2.349,4.853-6.331,4.177-10.27l-6.982-40.708l29.576-28.829
	c2.862-2.79,3.892-6.962,2.657-10.764C162,353.353,158.714,350.583,154.759,350.008z"/>
<path style="fill:#FFC477;" d="M86.191,301.178c-3.997,0-7.646,2.269-9.416,5.853l-18.278,37.037l-40.873,5.939
	c-3.955,0.575-7.241,3.345-8.477,7.146c-1.234,3.801-0.205,7.974,2.657,10.764l29.576,28.83l-6.981,40.708
	c-0.676,3.939,0.943,7.92,4.177,10.27c3.232,2.349,7.52,2.658,11.058,0.799l36.558-19.22L86.191,301.178L86.191,301.178z"/>
<path style="fill:#FF9F22;" d="M494.376,350.008l-40.873-5.939l-18.278-37.037c-1.77-3.584-5.419-5.853-9.416-5.853
	s-7.646,2.269-9.416,5.853l-18.278,37.037l-40.873,5.939c-3.955,0.575-7.241,3.345-8.477,7.146
	c-1.234,3.801-0.205,7.974,2.657,10.764l29.576,28.83l-6.981,40.708c-0.676,3.939,0.943,7.92,4.177,10.27
	c3.232,2.349,7.52,2.658,11.058,0.799l36.558-19.22l36.559,19.22c1.536,0.808,3.214,1.206,4.885,1.206
	c2.177,0,4.344-0.676,6.173-2.005c3.233-2.349,4.853-6.331,4.177-10.27l-6.982-40.708l29.576-28.829
	c2.862-2.79,3.892-6.962,2.657-10.764C501.617,353.353,498.331,350.583,494.376,350.008z"/>
<path style="fill:#FFC477;" d="M425.809,301.178c-3.997,0-7.646,2.269-9.416,5.853l-18.278,37.037l-40.873,5.939
	c-3.955,0.575-7.241,3.345-8.477,7.146c-1.234,3.801-0.205,7.974,2.657,10.764l29.576,28.83l-6.981,40.708
	c-0.676,3.939,0.943,7.92,4.177,10.27c3.232,2.349,7.52,2.658,11.058,0.799l36.558-19.22V301.178H425.809z"/>
<path style="fill:#95C449;" d="M439.888,62.27H72.112C32.35,62.27,0,94.619,0,134.382v48.659c0,37.125,28.196,67.787,64.301,71.691
	l15.592,20.773c5.14,6.848,12.997,10.852,21.557,10.985c0.147,0.002,0.295,0.003,0.441,0.003c8.393,0,16.189-3.741,21.447-10.309
	l16.841-21.032h299.709c39.763,0,72.112-32.349,72.112-72.112v-48.659C512,94.619,479.65,62.27,439.888,62.27z"/>
<path style="fill:#C4DF64;" d="M256,62.27H72.112C32.35,62.27,0,94.619,0,134.382v48.659c0,37.125,28.196,67.787,64.301,71.691
	l15.592,20.773c5.14,6.848,12.997,10.852,21.557,10.985c0.147,0.002,0.295,0.003,0.441,0.003c8.393,0,16.189-3.741,21.447-10.309
	l16.841-21.032H256V62.27z"/>
<path style="fill:#729637;" d="M424.704,112.945H87.296c-8.284,0-15,6.716-15,15c0,8.284,6.716,15,15,15h337.408
	c8.284,0,15-6.716,15-15S432.988,112.945,424.704,112.945z"/>
<g>
	<path style="fill:#95C449;" d="M256,112.945H87.296c-8.284,0-15,6.716-15,15c0,8.284,6.716,15,15,15H256V112.945z"/>
	<path style="fill:#95C449;" d="M223.832,173.257H87.296c-8.284,0-15,6.716-15,15s6.716,15,15,15h136.536c8.284,0,15-6.716,15-15
		S232.116,173.257,223.832,173.257z"/>
</g>
<g>
</g>
<g>
</g>
<g>
</g>
<g>
</g>
<g>
</g>
<g>
</g>
<g>
</g>
<g>
</g>
<g>
</g>
<g>
</g>
<g>
</g>
<g>
</g>
<g>
</g>
<g>
</g>
<g>
</g>
</svg>
